<mxfile host="app.diagrams.net" modified="2022-09-23T06:02:59.064Z" agent="5.0 (Windows NT 10.0; Win64; x64) AppleWebKit/537.36 (KHTML, like Gecko) Chrome/104.0.5112.124 Safari/537.36" etag="2oRlh-_MDG9PeTVvUIlK" version="20.3.6" type="github">
  <diagram id="piYuKYm90bYbCBnB3B2F" name="Page-1">
    <mxGraphModel dx="924" dy="500" grid="1" gridSize="10" guides="1" tooltips="1" connect="1" arrows="1" fold="1" page="1" pageScale="1" pageWidth="850" pageHeight="1100" math="0" shadow="0">
      <root>
        <mxCell id="0" />
        <mxCell id="1" parent="0" />
        <mxCell id="C6qxF_mmiagfhrfjpzzs-1" value="Generic Server Action Calculate TWF" style="swimlane;" parent="1" vertex="1">
          <mxGeometry x="40" y="20" width="760" height="580" as="geometry" />
        </mxCell>
        <mxCell id="C6qxF_mmiagfhrfjpzzs-9" value="" style="edgeStyle=orthogonalEdgeStyle;rounded=0;orthogonalLoop=1;jettySize=auto;html=1;" parent="C6qxF_mmiagfhrfjpzzs-1" source="C6qxF_mmiagfhrfjpzzs-3" target="C6qxF_mmiagfhrfjpzzs-4" edge="1">
          <mxGeometry relative="1" as="geometry" />
        </mxCell>
        <mxCell id="C6qxF_mmiagfhrfjpzzs-3" value="Start" style="strokeWidth=2;html=1;shape=mxgraph.flowchart.start_1;whiteSpace=wrap;" parent="C6qxF_mmiagfhrfjpzzs-1" vertex="1">
          <mxGeometry x="40" y="60" width="100" height="60" as="geometry" />
        </mxCell>
        <mxCell id="C6qxF_mmiagfhrfjpzzs-7" value="Yes" style="edgeStyle=orthogonalEdgeStyle;rounded=0;orthogonalLoop=1;jettySize=auto;html=1;" parent="C6qxF_mmiagfhrfjpzzs-1" source="C6qxF_mmiagfhrfjpzzs-4" target="C6qxF_mmiagfhrfjpzzs-5" edge="1">
          <mxGeometry relative="1" as="geometry" />
        </mxCell>
        <mxCell id="C6qxF_mmiagfhrfjpzzs-8" value="No" style="edgeStyle=orthogonalEdgeStyle;rounded=0;orthogonalLoop=1;jettySize=auto;html=1;exitX=0.5;exitY=1;exitDx=0;exitDy=0;entryX=0;entryY=0.5;entryDx=0;entryDy=0;" parent="C6qxF_mmiagfhrfjpzzs-1" source="C6qxF_mmiagfhrfjpzzs-4" target="C6qxF_mmiagfhrfjpzzs-6" edge="1">
          <mxGeometry relative="1" as="geometry" />
        </mxCell>
        <mxCell id="C6qxF_mmiagfhrfjpzzs-4" value="UEN?" style="rhombus;whiteSpace=wrap;html=1;" parent="C6qxF_mmiagfhrfjpzzs-1" vertex="1">
          <mxGeometry x="50" y="180" width="80" height="80" as="geometry" />
        </mxCell>
        <mxCell id="C6qxF_mmiagfhrfjpzzs-12" value="" style="edgeStyle=orthogonalEdgeStyle;rounded=0;orthogonalLoop=1;jettySize=auto;html=1;" parent="C6qxF_mmiagfhrfjpzzs-1" source="C6qxF_mmiagfhrfjpzzs-5" target="C6qxF_mmiagfhrfjpzzs-11" edge="1">
          <mxGeometry relative="1" as="geometry" />
        </mxCell>
        <mxCell id="C6qxF_mmiagfhrfjpzzs-5" value="Calculate foreign workforce by UEN" style="shape=process;whiteSpace=wrap;html=1;backgroundOutline=1;" parent="C6qxF_mmiagfhrfjpzzs-1" vertex="1">
          <mxGeometry x="200" y="190" width="120" height="60" as="geometry" />
        </mxCell>
        <mxCell id="C6qxF_mmiagfhrfjpzzs-13" style="edgeStyle=orthogonalEdgeStyle;rounded=0;orthogonalLoop=1;jettySize=auto;html=1;exitX=1;exitY=0.5;exitDx=0;exitDy=0;entryX=0.5;entryY=1;entryDx=0;entryDy=0;" parent="C6qxF_mmiagfhrfjpzzs-1" source="C6qxF_mmiagfhrfjpzzs-6" target="C6qxF_mmiagfhrfjpzzs-11" edge="1">
          <mxGeometry relative="1" as="geometry" />
        </mxCell>
        <mxCell id="C6qxF_mmiagfhrfjpzzs-6" value="Calculate foreign workforce by CompanyCode" style="shape=process;whiteSpace=wrap;html=1;backgroundOutline=1;" parent="C6qxF_mmiagfhrfjpzzs-1" vertex="1">
          <mxGeometry x="200" y="310" width="120" height="60" as="geometry" />
        </mxCell>
        <mxCell id="C6qxF_mmiagfhrfjpzzs-27" style="edgeStyle=orthogonalEdgeStyle;rounded=0;orthogonalLoop=1;jettySize=auto;html=1;exitX=0.5;exitY=1;exitDx=0;exitDy=0;" parent="C6qxF_mmiagfhrfjpzzs-1" source="C6qxF_mmiagfhrfjpzzs-10" target="C6qxF_mmiagfhrfjpzzs-21" edge="1">
          <mxGeometry relative="1" as="geometry" />
        </mxCell>
        <mxCell id="C6qxF_mmiagfhrfjpzzs-10" value="Call IWPS Function to get local workforce" style="shape=process;whiteSpace=wrap;html=1;backgroundOutline=1;" parent="C6qxF_mmiagfhrfjpzzs-1" vertex="1">
          <mxGeometry x="600" y="190" width="120" height="60" as="geometry" />
        </mxCell>
        <mxCell id="C6qxF_mmiagfhrfjpzzs-14" value="" style="edgeStyle=orthogonalEdgeStyle;rounded=0;orthogonalLoop=1;jettySize=auto;html=1;" parent="C6qxF_mmiagfhrfjpzzs-1" source="C6qxF_mmiagfhrfjpzzs-11" target="C6qxF_mmiagfhrfjpzzs-10" edge="1">
          <mxGeometry relative="1" as="geometry" />
        </mxCell>
        <mxCell id="C6qxF_mmiagfhrfjpzzs-11" value="Get CPFNo by UEN or CompanyCode" style="shape=process;whiteSpace=wrap;html=1;backgroundOutline=1;" parent="C6qxF_mmiagfhrfjpzzs-1" vertex="1">
          <mxGeometry x="400" y="190" width="120" height="60" as="geometry" />
        </mxCell>
        <mxCell id="C6qxF_mmiagfhrfjpzzs-19" value="End" style="strokeWidth=2;html=1;shape=mxgraph.flowchart.start_1;whiteSpace=wrap;" parent="C6qxF_mmiagfhrfjpzzs-1" vertex="1">
          <mxGeometry x="610" y="470" width="100" height="60" as="geometry" />
        </mxCell>
        <mxCell id="C6qxF_mmiagfhrfjpzzs-28" value="" style="edgeStyle=orthogonalEdgeStyle;rounded=0;orthogonalLoop=1;jettySize=auto;html=1;" parent="C6qxF_mmiagfhrfjpzzs-1" source="C6qxF_mmiagfhrfjpzzs-21" target="C6qxF_mmiagfhrfjpzzs-19" edge="1">
          <mxGeometry relative="1" as="geometry" />
        </mxCell>
        <mxCell id="C6qxF_mmiagfhrfjpzzs-21" value="Workforce Count" style="swimlane;fontStyle=0;childLayout=stackLayout;horizontal=1;startSize=26;fillColor=none;horizontalStack=0;resizeParent=1;resizeParentMax=0;resizeLast=0;collapsible=1;marginBottom=0;" parent="C6qxF_mmiagfhrfjpzzs-1" vertex="1">
          <mxGeometry x="590" y="310" width="140" height="104" as="geometry" />
        </mxCell>
        <mxCell id="C6qxF_mmiagfhrfjpzzs-22" value="Foreign workforce" style="text;strokeColor=none;fillColor=none;align=left;verticalAlign=top;spacingLeft=4;spacingRight=4;overflow=hidden;rotatable=0;points=[[0,0.5],[1,0.5]];portConstraint=eastwest;" parent="C6qxF_mmiagfhrfjpzzs-21" vertex="1">
          <mxGeometry y="26" width="140" height="26" as="geometry" />
        </mxCell>
        <mxCell id="C6qxF_mmiagfhrfjpzzs-23" value="Foreign workforce SPP" style="text;strokeColor=none;fillColor=none;align=left;verticalAlign=top;spacingLeft=4;spacingRight=4;overflow=hidden;rotatable=0;points=[[0,0.5],[1,0.5]];portConstraint=eastwest;" parent="C6qxF_mmiagfhrfjpzzs-21" vertex="1">
          <mxGeometry y="52" width="140" height="26" as="geometry" />
        </mxCell>
        <mxCell id="C6qxF_mmiagfhrfjpzzs-24" value="Local workforce" style="text;strokeColor=none;fillColor=none;align=left;verticalAlign=top;spacingLeft=4;spacingRight=4;overflow=hidden;rotatable=0;points=[[0,0.5],[1,0.5]];portConstraint=eastwest;" parent="C6qxF_mmiagfhrfjpzzs-21" vertex="1">
          <mxGeometry y="78" width="140" height="26" as="geometry" />
        </mxCell>
      </root>
    </mxGraphModel>
  </diagram>
</mxfile>
